<svg xmlns="http://www.w3.org/2000/svg" width="26" height="24" fill="none" viewBox="0 0 26 24"><path fill="#D7DBE0" fill-rule="evenodd" d="M1.313 3.875h18.375c.724 0 1.312.588 1.312 1.313v13.125c0 .724-.588 1.312-1.312 1.312H1.313A1.31 1.31 0 0 1 0 18.313V5.188c0-.725.588-1.313 1.313-1.313m1.312 7.875V17h15.75v-5.25zm15.75-2.625H2.625V6.5h15.75z" clip-rule="evenodd"/><circle cx="19" cy="7" r="7" fill="#B0B6BF"/><path fill="#F6F7F8" d="M16.414 5.29V9h-.784V6.035h-.022l-.849.533v-.696l.918-.581zM17.296 9v-.565l1.32-1.223q.168-.162.283-.293.116-.13.175-.255a.6.6 0 0 0 .06-.274.488.488 0 0 0-.277-.464.64.64 0 0 0-.292-.065.6.6 0 0 0-.297.07.48.48 0 0 0-.195.197.64.64 0 0 0-.069.306h-.744q0-.365.164-.632.165-.269.462-.415.297-.147.685-.147.398 0 .694.141a1.1 1.1 0 0 1 .461.388q.165.248.165.569 0 .21-.083.414a1.7 1.7 0 0 1-.292.455q-.21.248-.592.596l-.541.53v.026h1.557V9zm4.583.05q-.405 0-.722-.139a1.23 1.23 0 0 1-.498-.387.97.97 0 0 1-.187-.573h.79q.007.135.088.24.084.101.221.157a.8.8 0 0 0 .31.056.75.75 0 0 0 .317-.063.5.5 0 0 0 .215-.176.44.44 0 0 0 .078-.259.43.43 0 0 0-.083-.262.53.53 0 0 0-.235-.182.9.9 0 0 0-.363-.065h-.345v-.576h.345q.178 0 .314-.061a.5.5 0 0 0 .213-.17.44.44 0 0 0 .076-.258.44.44 0 0 0-.251-.41.718.718 0 0 0-.567-.002.5.5 0 0 0-.212.16.42.42 0 0 0-.085.247h-.752a.97.97 0 0 1 .183-.565q.178-.244.478-.382.303-.14.683-.14.384 0 .672.14t.447.376q.161.236.16.53a.72.72 0 0 1-.194.519.88.88 0 0 1-.505.264v.03q.409.052.623.284a.8.8 0 0 1 .213.576.9.9 0 0 1-.183.563q-.183.246-.505.387a1.8 1.8 0 0 1-.739.142"/></svg>